<svg width="24" height="24" viewBox="0 0 24 24" fill="none" xmlns="http://www.w3.org/2000/svg">
  <path d="M12 4C13.1046 4 14 3.10457 14 2C14 0.89543 13.1046 0 12 0C10.8954 0 10 0.89543 10 2C10 3.10457 10.8954 4 12 4Z" fill="#2DD4BF"/>
  <path d="M18 8C18 6.34315 16.6569 5 15 5H9C7.34315 5 6 6.34315 6 8V10C6 11.6569 7.34315 13 9 13H15C16.6569 13 18 11.6569 18 10V8Z" fill="#2DD4BF"/>
  <path d="M12 24C15.3137 24 18 21.3137 18 18C18 14.6863 15.3137 12 12 12C8.68629 12 6 14.6863 6 18C6 21.3137 8.68629 24 12 24Z" fill="#2DD4BF"/>
</svg> 